PathFileType	4	(X/Y/Z)	Walk3.trc
DataRate	CameraRate	NumFrames	NumMarkers	Units	OrigDataRate	OrigDataStartFrame	OrigNumFrames
200.000000	200.000000	4	59	mm	200.000000	507	545
Frame#	Times		LBHD		C7		T10		RBack		LPSI		RPSI		RCAR		LElbowM		RElbowM		LUA1		LLFC		LFHD		RFA1		LWRU		LCAR		RTB1		LACR1		RUA1		CLAV		RTH2		RTH3		LWRR		RToe		RACR1		RTB3		RTB4		RWRU		RCAL		RMT5		RBHD		RTH4		RLFC		LFA1		RTH1		RWRR		RMT1		RFHD		LTH1		STRN		LTH3		LTH4		RTB2		RElbow		RMMAL		LElbow		LTH2		LTB3		RASI		LASI		LCAL		LMT1		LTB2		LLMAL		RLMAL		LMT5		LToe		LTB1		LMMAL		LTB4
			X1	Y1	Z1	X2	Y2	Z2	X3	Y3	Z3	X4	Y4	Z4	X5	Y5	Z5	X6	Y6	Z6	X7	Y7	Z7	X8	Y8	Z8	X9	Y9	Z9	X10	Y10	Z10	X11	Y11	Z11	X12	Y12	Z12	X13	Y13	Z13	X14	Y14	Z14	X15	Y15	Z15	X16	Y16	Z16	X17	Y17	Z17	X18	Y18	Z18	X19	Y19	Z19	X20	Y20	Z20	X21	Y21	Z21	X22	Y22	Z22	X23	Y23	Z23	X24	Y24	Z24	X25	Y25	Z25	X26	Y26	Z26	X27	Y27	Z27	X28	Y28	Z28	X29	Y29	Z29	X30	Y30	Z30	X31	Y31	Z31	X32	Y32	Z32	X33	Y33	Z33	X34	Y34	Z34	X35	Y35	Z35	X36	Y36	Z36	X37	Y37	Z37	X38	Y38	Z38	X39	Y39	Z39	X40	Y40	Z40	X41	Y41	Z41	X42	Y42	Z42	X43	Y43	Z43	X44	Y44	Z44	X45	Y45	Z45	X46	Y46	Z46	X47	Y47	Z47	X48	Y48	Z48	X49	Y49	Z49	X50	Y50	Z50	X51	Y51	Z51	X52	Y52	Z52	X53	Y53	Z53	X54	Y54	Z54	X55	Y55	Z55	X56	Y56	Z56	X57	Y57	Z57	X58	Y58	Z58	X59	Y59	Z59

507	2.535	718.34	1495.5	-114.31	682.15	1361.4	-44.027	653.04	1092.1	-35.377	649.97	1268.4	89.049	632.45	904.73	-62.156	622.57	907	37.334	822.62	764.34	293.46	696.93	970.63	-222.49	687.12	974.97	173.89	771.4	1118.1	-274.33	755.25	452.25	-129.06	888.11	1494.1	-76.547	738	890.41	267.32	802.78	763.48	-307.84	858.5	735.84	-325.35	886.68	344.83	97.115	774.37	1293.3	-198.09	749.19	1157.1	206.13	806.77	1282.6	-26.608	885.37	685.57	170.92	843.4	567.02	176.58	868.21	773.73	-274.58	864.58	47.752	126	746.48	1307.9	117.6	802.49	181.02	88.361	837.74	267.64	93.484	769.71	782.31	265.31	669.9	113.04	78.481	787.4	70.307	137.93	704.94	1503.8	5.038	814.87	657.41	192.36	887.56	477.78	171.67	763.36	880.26	-308.23	789.34	742.35	209.63	838.72	798.15	242.02	824.32	78.395	96.058	885.83	1504.4	0.94677	801.9	741.99	-190.01	868.39	1177.8	-20.105	790.94	560.4	-138.69	799.2	652.02	-161.82	802.04	281.45	155.39	728.38	1016.9	251.21	751.76	122.52	46.234	727.82	1002.5	-289.6	857	664.16	-117.99	757	158.73	-31.868	842.73	889.79	143.59	805.98	859.38	-160.75	656.77	30.864	-28.277	812.15	44.872	-22.034	734.97	247.93	-107.4	701.73	62.851	-70.672	726.13	122.17	122.02	787.07	28.079	-77.637	869.85	20.68	-31.339	780.17	339.31	-47.757	722.06	68.156	7.507	760.07	250.14	-41.277
508	2.54	723.85	1495.1	-114.07	687.54	1361	-43.922	658.27	1091.7	-35.459	655.18	1267.9	88.99	637.37	904.47	-61.854	627.74	906.57	37.683	824.77	763.36	294.51	703.17	969.87	-222.62	691.3	974.65	173.55	777.08	1117.7	-274.45	757.76	452	-129.08	893.65	1493.6	-76.387	741.01	889.91	267.59	810.66	763.46	-307.57	866.57	736.1	-324.69	897.31	345.07	96.17	779.74	1292.9	-198.02	753.8	1156.5	206.21	812.06	1282.1	-26.526	892.08	686.05	169.94	851.13	567.19	175.85	875.79	774.03	-273.88	883.44	47.671	125.94	751.71	1307.3	117.7	817.51	179.02	88.267	850.51	266.58	93	772.14	781.61	266.01	686.72	107.43	79.229	805.71	68.047	138.21	710.5	1503.3	5.2608	822.01	657.33	191.87	895.7	478.15	170.46	770.34	879.82	-308.06	795.86	742.1	209.25	841.49	797.03	243.21	842.17	77.122	96.127	891.39	1503.8	1.1104	806.26	741.47	-190.06	873.6	1177.2	-20.135	794.17	559.94	-138.63	802.99	651.52	-161.82	814.79	279.51	155.12	732.09	1016.4	251.22	768.1	119.05	46.574	733.96	1001.9	-289.69	860.82	663.32	-117.96	757.68	158.5	-31.717	846.66	888.78	143.59	815.65	858.37	-161.14	656.82	30.961	-28.199	812.2	44.802	-21.922	736.34	247.78	-107.35	701.95	62.91	-70.581	742.95	118.16	122.55	787.11	28.057	-77.54	869.92	20.69	-31.371	781.99	338.94	-47.679	722.14	68.095	7.688	761.27	249.85	-41.136
509	2.545	729.33	1494.7	-113.82	692.91	1360.6	-43.794	663.5	1091.3	-35.519	660.38	1267.4	88.956	642.29	904.18	-61.528	632.91	906.11	38.043	826.95	762.38	295.55	709.4	969.08	-222.76	695.48	974.29	173.25	782.76	1117.3	-274.55	760.36	451.71	-129.09	899.17	1493	-76.203	744.04	889.39	267.85	818.52	763.4	-307.28	874.61	736.33	-324.01	907.83	345.3	95.212	785.09	1292.5	-197.93	758.42	1155.9	206.32	817.34	1281.6	-26.428	898.73	686.44	168.96	858.74	567.29	175.12	883.36	774.3	-273.17	902.21	47.68	125.81	756.94	1306.7	117.82	832.54	177.12	88.145	863.24	265.56	92.5	774.59	780.9	266.69	703.65	101.96	79.919	824.02	65.922	138.43	716.04	1502.8	5.5	829.08	657.2	191.37	903.7	478.44	169.25	777.32	879.34	-307.87	802.38	741.8	208.86	844.27	795.91	244.39	860.01	75.95	96.142	896.93	1503.2	1.2948	810.62	740.92	-190.1	878.81	1176.7	-20.152	797.47	559.45	-138.56	806.81	650.99	-161.82	827.5	277.62	154.83	735.81	1015.9	251.24	784.52	115.72	46.874	740.1	1001.3	-289.77	864.68	662.47	-117.93	758.39	158.26	-31.556	850.6	887.74	143.59	825.5	857.36	-161.55	656.85	31.077	-28.123	812.24	44.734	-21.808	737.76	247.61	-107.28	702.17	62.962	-70.482	759.83	114.29	123.04	787.16	28.045	-77.447	869.98	20.698	-31.398	783.88	338.53	-47.583	722.22	68.028	7.8715	762.52	249.54	-40.98
510	2.55	734.81	1494.2	-113.56	698.28	1360.1	-43.644	668.71	1090.9	-35.555	665.58	1266.8	88.946	647.2	903.88	-61.179	638.08	905.63	38.413	829.15	761.39	296.57	715.63	968.27	-222.9	699.64	973.9	172.99	788.46	1116.9	-274.62	763.06	451.39	-129.08	904.67	1492.4	-75.997	747.08	888.84	268.11	826.36	763.32	-306.95	882.62	736.52	-323.3	918.24	345.53	94.243	790.42	1292.1	-197.83	763.05	1155.3	206.46	822.62	1281	-26.315	905.31	686.74	167.98	866.23	567.32	174.38	890.91	774.55	-272.43	920.91	47.788	125.63	762.16	1306	117.95	847.57	175.32	87.994	875.93	264.59	91.988	777.08	780.18	267.35	720.68	96.667	80.551	842.3	63.946	138.6	721.56	1502.3	5.7567	836.08	657.01	190.88	911.56	478.65	168.05	784.31	878.84	-307.66	808.91	741.45	208.48	847.07	794.79	245.55	877.83	74.888	96.105	902.45	1502.5	1.4994	814.96	740.34	-190.14	884.02	1176.1	-20.155	800.84	558.94	-138.47	810.66	650.43	-161.82	840.16	275.78	154.5	739.55	1015.3	251.27	801	112.52	47.133	746.26	1000.7	-289.84	868.56	661.61	-117.91	759.13	158	-31.389	854.54	886.67	143.61	835.37	856.35	-161.97	656.86	31.211	-28.049	812.28	44.668	-21.692	739.23	247.42	-107.21	702.4	63.007	-70.376	776.77	110.57	123.48	787.22	28.042	-77.36	870.05	20.705	-31.422	785.82	338.08	-47.472	722.31	67.956	8.0541	763.82	249.21	-40.813
